# xmcd CD database file
#
# Track frame offsets:
#	150
#	45532
#	52955
#	61592
#	70110
#	101540
#	129465
#	164485
#	173125
#	181640
#	188880
#	202002
#
# Disc length: 3297 seconds
#
# Revision: 0
# Processed by: cddbd v1.5.1PL0 Copyright (c) Steve Scherf et al.
# Submitted via: CDex 1.51
#
DISCID=9c0cdf0c
DTITLE=Carol Emanuel - Mystic Harp
DYEAR=1900
DGENRE=New Age
TTITLE0=Attention
TTITLE1=Resound
TTITLE2=Survey
TTITLE3=Refinement
TTITLE4=Rocket
TTITLE5=Create
TTITLE6=Theme
TTITLE7=Rule
TTITLE8=Announcement
TTITLE9=Call
TTITLE10=Reality
TTITLE11=Wake
EXTD=
EXTT0=
EXTT1=
EXTT2=
EXTT3=
EXTT4=
EXTT5=
EXTT6=
EXTT7=
EXTT8=
EXTT9=
EXTT10=
EXTT11=
PLAYORDER=
